<svg version="1.1" id="Layer_1" xmlns="http://www.w3.org/2000/svg" xmlns:xlink="http://www.w3.org/1999/xlink" x="0px" y="0px"
	 width="100%" viewBox="0 0 259 194" enable-background="new 0 0 259 194" xml:space="preserve">
<path fill="#FEFEFE" opacity="1.000000" stroke="none" 
	d="
M190.000000,195.000000 
	C126.666672,195.000000 63.833340,195.000000 1.000008,195.000000 
	C1.000006,130.333344 1.000006,65.666679 1.000003,1.000017 
	C87.333321,1.000011 173.666641,1.000011 260.000000,1.000006 
	C260.000000,65.666649 260.000000,130.333298 260.000000,194.999969 
	C236.833328,195.000000 213.666672,195.000000 190.000000,195.000000 
M116.997246,66.996933 
	C116.997246,66.996933 117.009521,67.042000 116.551323,67.207314 
	C116.263023,67.398994 116.091125,67.665710 115.424316,68.287315 
	C113.253128,70.875175 111.081940,73.463043 108.003830,76.225174 
	C102.724266,76.262360 97.439758,76.176353 92.167175,76.387711 
	C89.453323,76.496498 86.347816,76.719482 87.216286,81.676430 
	C83.939537,86.808884 85.303078,90.788681 90.920517,92.886017 
	C91.690384,94.649162 92.460251,96.412315 93.035805,98.504982 
	C93.035805,98.504982 92.955788,98.879066 92.147011,98.806351 
	C90.793747,98.852776 89.440491,98.899208 87.780579,98.689331 
	C87.536880,98.579674 87.284157,98.497948 86.665535,98.053879 
	C86.461105,97.779022 86.256676,97.504166 86.596420,96.755676 
	C84.430855,96.477287 82.265297,96.198898 80.131500,94.993095 
	C80.153687,84.699783 80.175873,74.406471 80.745934,63.707535 
	C81.512299,61.877453 82.278656,60.047371 83.711098,58.023479 
	C87.903946,54.667385 92.096786,51.311295 96.406326,47.861801 
	C97.044273,52.395302 97.582596,56.220882 98.302086,61.333851 
	C104.520645,56.072220 109.367599,51.971123 114.820396,47.357407 
	C107.493889,44.501457 101.091431,42.005714 94.075066,39.270664 
	C96.436676,45.103966 92.289558,47.338020 88.796112,50.070232 
	C86.328102,52.000454 84.108582,54.248398 81.040131,56.380154 
	C76.858704,55.808331 74.877472,57.644871 74.412071,62.123718 
	C71.100624,64.978264 67.789185,67.832809 64.477745,70.687363 
	C64.956886,71.275681 65.436035,71.864006 65.915184,72.452332 
	C69.636375,69.587639 73.357567,66.722954 77.430779,64.031303 
	C77.430779,64.031303 77.813515,64.117188 77.785339,65.039146 
	C77.823662,75.332909 77.861984,85.626678 77.094994,95.983421 
	C75.397430,96.379288 73.699875,96.775146 71.644058,97.827118 
	C70.106628,98.153389 68.582764,98.587433 67.028893,98.782967 
	C64.019745,99.161621 64.580498,100.548477 66.666573,102.594185 
	C68.223907,102.786774 69.781242,102.979355 71.148788,103.148468 
	C71.148788,108.776466 71.148788,113.845879 70.471382,119.097862 
	C69.112122,118.768974 67.752869,118.440086 65.195168,117.821220 
	C65.485542,120.554749 65.769203,123.225151 65.674469,126.482384 
	C64.774574,128.278915 63.874676,130.075439 62.435287,132.295609 
	C62.085297,133.103378 61.735310,133.911148 61.088940,135.402954 
	C64.387596,134.413620 67.003441,133.629089 70.271950,132.940994 
	C70.710320,132.971771 71.148697,133.002548 71.768288,133.947754 
	C71.707253,139.956421 71.646210,145.965103 71.098419,151.969055 
	C70.773872,151.978424 70.449493,151.974350 69.881836,151.963226 
	C69.881836,151.963226 69.639435,151.986771 69.464973,151.358124 
	C67.005478,148.070084 63.488045,145.189743 65.171387,140.261520 
	C65.171387,140.261520 65.151405,140.222870 65.726791,140.215714 
	C65.848038,139.861420 65.969292,139.507141 66.567444,138.580521 
	C61.899101,138.408600 57.230900,138.230484 52.561024,138.128403 
	C52.496254,138.126984 52.410572,139.082245 52.581314,140.350540 
	C54.093220,143.111969 53.843475,145.573044 51.597462,147.917114 
	C50.497650,149.064957 49.741638,150.542221 48.234711,152.332886 
	C47.770855,154.821320 47.307003,157.309738 46.769039,160.633041 
	C47.839729,168.118958 49.108173,169.260101 56.361984,169.262238 
	C58.336029,169.262817 60.348137,169.015640 62.276264,169.313187 
	C66.409637,169.951019 69.225861,168.373154 71.272766,165.604294 
	C72.162766,166.861282 73.052765,168.118286 73.942772,169.375290 
	C74.515015,168.024918 75.198036,166.708084 75.620590,165.312378 
	C75.902847,164.380096 75.814491,163.335602 76.588394,162.674500 
	C80.179268,164.350021 83.739685,166.099091 87.397125,167.613892 
	C87.889336,167.817749 88.870361,166.841354 89.774063,165.656464 
	C92.517097,160.779068 95.260132,155.901688 98.611916,151.009293 
	C99.738693,150.671890 100.865471,150.334488 102.000443,149.999557 
	C102.000443,149.999557 101.995888,149.989975 102.457359,149.626999 
	C102.654266,149.090622 102.851166,148.554245 102.994789,148.011932 
	C102.994789,148.011932 103.034309,148.048538 103.484657,147.625290 
	C103.926758,146.489014 104.368858,145.352753 105.175232,143.465652 
	C105.439529,140.982941 105.703835,138.500244 105.977608,135.497040 
	C105.945976,135.326416 105.914345,135.155792 106.023628,134.503448 
	C105.994499,134.338715 105.965363,134.173965 106.096306,133.359146 
	C106.086800,132.914673 106.077293,132.470200 106.426552,131.431412 
	C106.644348,130.293549 106.862144,129.155685 107.619965,128.128632 
	C107.824974,128.433212 108.029976,128.737793 108.137657,129.814072 
	C108.401909,131.552536 108.666161,133.291000 108.856567,135.693069 
	C108.924683,136.131271 108.992798,136.569458 108.970955,137.500763 
	C109.013641,137.662292 109.056335,137.823837 108.998955,138.773453 
	C109.124382,139.820953 109.249809,140.868439 109.196373,142.374161 
	C109.190155,142.731125 109.330589,143.015717 109.743835,143.673950 
	C109.743835,143.673950 109.953590,144.087250 110.000648,144.918884 
	C110.000648,150.062714 110.000648,155.206558 110.000648,160.350388 
	C109.567780,160.370895 109.134903,160.391403 108.702034,160.411911 
	C108.209198,159.266586 107.716354,158.121277 107.223518,156.975952 
	C106.800797,157.033783 106.378075,157.091599 105.955353,157.149429 
	C105.955353,159.052002 105.955353,160.954590 105.301910,163.086105 
	C103.917206,164.732086 102.532494,166.378067 101.285721,168.907272 
	C108.963829,169.010422 116.641884,169.126328 124.320290,169.158096 
	C124.562592,169.159088 124.808472,168.292816 125.041908,167.036011 
	C127.038963,157.604553 127.038963,157.604553 132.765533,158.801224 
	C132.163559,162.143051 131.561600,165.484894 130.959625,168.826721 
	C131.530197,168.966782 132.100769,169.106857 132.671341,169.246918 
	C133.180252,167.755386 133.445908,166.114624 134.249969,164.804184 
	C135.805222,162.269440 133.662796,157.324265 139.195114,158.008606 
	C140.239395,161.792480 141.283676,165.576355 142.327942,169.360214 
	C142.930847,169.190964 143.533752,169.021729 144.136658,168.852478 
	C143.649033,165.005692 143.161423,161.158920 143.647980,157.252548 
	C149.376526,157.257538 155.105072,157.262543 160.929031,157.661545 
	C160.929031,157.661545 161.168793,157.988449 161.187988,158.775635 
	C161.804199,161.506470 162.208221,164.312897 163.140808,166.931046 
	C163.515076,167.981812 164.957962,169.082153 166.085312,169.308289 
	C167.123367,169.516571 168.390564,168.582642 169.965805,167.545273 
	C167.717331,162.758347 173.435730,163.120377 174.325714,159.984787 
	C176.702820,162.058304 178.716385,163.814697 180.654129,165.504959 
	C181.573044,165.030731 182.497498,164.553650 183.193512,164.194458 
	C184.237457,165.705261 185.049164,166.879974 186.189423,168.616776 
	C187.777115,168.773758 189.364822,168.930740 191.801895,169.247696 
	C193.545364,169.209869 195.288834,169.172043 197.806320,169.342865 
	C206.848328,169.342865 215.890350,169.342865 224.932358,169.342865 
	C225.113846,168.835953 225.295349,168.329056 225.476837,167.822144 
	C222.283203,165.981049 219.119934,164.084351 215.885300,162.318344 
	C213.712524,161.132065 211.330414,160.304718 209.238358,159.001495 
	C206.791519,157.477249 204.558640,155.572113 201.510544,158.929886 
	C200.715790,158.727280 199.921021,158.524658 198.921692,157.649582 
	C197.669235,155.986374 196.416779,154.323166 194.982224,152.029251 
	C190.989334,147.055466 186.996445,142.081680 183.065201,136.151382 
	C183.012283,125.453911 182.959351,114.756447 183.175659,103.378830 
	C185.092514,102.988022 187.009369,102.597206 189.704727,101.835251 
	C190.605774,99.223045 189.254730,98.732208 187.004898,98.768150 
	C182.728577,98.836487 178.449814,98.751953 174.133133,98.381813 
	C174.133133,98.381813 174.004044,98.055122 174.206177,97.342964 
	C175.250885,96.073326 176.463211,94.902214 177.286102,93.502197 
	C177.919678,92.424278 178.554367,90.951103 178.312195,89.845665 
	C177.933807,88.118385 176.814178,86.553490 175.660110,84.213081 
	C173.472565,84.213081 170.398529,84.213081 167.017090,83.532433 
	C161.995392,76.767189 156.973694,70.001945 152.529449,62.796196 
	C155.113434,59.721214 157.562424,55.908672 154.632309,52.548046 
	C152.382660,49.967892 148.237869,49.040108 144.935898,47.377472 
	C144.752014,47.772812 144.568130,48.168152 144.384232,48.563492 
	C143.929520,45.627354 143.474808,42.691216 143.016815,39.733837 
	C149.401016,37.380909 151.907410,34.103722 150.668198,29.636314 
	C149.435074,25.190851 145.756516,23.451754 140.151794,24.664492 
	C137.073654,25.330532 133.925766,30.977446 134.331818,33.091183 
	C131.134766,35.669796 128.503403,37.792149 125.406815,40.429501 
	C124.939774,41.958427 124.472725,43.487354 123.724106,45.591122 
	C122.946594,45.989475 122.169083,46.387833 121.252632,46.857376 
	C122.341164,47.700745 123.158409,48.333931 123.999077,48.999176 
	C123.999077,48.999176 123.965050,48.981319 123.518967,49.415634 
	C123.325394,50.225380 123.131821,51.035130 122.241745,52.018787 
	C116.864677,56.056976 116.479919,58.787968 120.171143,63.924175 
	C119.454803,64.652252 118.738457,65.380333 117.554100,66.222878 
	C117.261269,66.405441 117.090668,66.667572 116.997246,66.996933 
M53.592754,120.644424 
	C58.145119,120.457596 59.617870,117.928604 58.595211,112.861694 
	C56.522945,112.576248 54.668915,112.320862 52.814884,112.065475 
	C53.818512,112.921547 54.822140,113.777618 55.825768,114.633682 
	C54.109844,115.656662 52.393921,116.679649 50.677998,117.702629 
	C50.038067,117.249336 49.398136,116.796043 48.758205,116.342758 
	C50.174820,117.658829 51.591434,118.974899 53.592754,120.644424 
M44.243835,133.084885 
	C44.263607,133.600571 44.283379,134.116241 44.303150,134.631943 
	C48.790329,133.944321 53.279743,133.269562 57.751217,132.491684 
	C57.858185,132.473068 57.764679,131.302063 57.764679,130.668549 
	C57.675659,130.951202 57.703217,131.461823 57.671753,131.465485 
	C53.445557,131.957489 49.215038,132.412430 44.243835,133.084885 
z"/>
<path fill="#FF7438" opacity="1.000000" stroke="none" 
	d="
M109.953590,144.087250 
	C109.953590,144.087250 109.743835,143.673950 109.763382,143.220764 
	C109.793350,142.413666 109.657448,142.129776 109.375237,141.915939 
	C109.249809,140.868439 109.124382,139.820953 109.200966,138.285812 
	C109.288956,137.534668 109.174942,137.271164 109.060921,137.007660 
	C108.992798,136.569458 108.924683,136.131271 109.167824,135.149338 
	C110.021072,133.393112 110.563057,132.180634 111.409775,131.108582 
	C112.554726,132.878174 113.394951,134.507324 114.333778,136.327637 
	C115.386719,136.510162 117.120834,136.810776 118.759026,137.094772 
	C119.046600,135.024338 119.357262,132.787704 119.536942,131.494064 
	C118.022148,129.767929 116.784431,128.357544 116.195145,127.686043 
	C114.535683,128.464188 112.837074,129.260666 110.827675,130.026978 
	C109.756248,129.678635 108.995621,129.360504 108.234985,129.042374 
	C108.029976,128.737793 107.824974,128.433212 107.077415,128.236588 
	C106.379181,129.571609 106.223488,130.798660 106.067795,132.025726 
	C106.077293,132.470200 106.086800,132.914673 105.859566,133.768036 
	C105.560585,134.276489 105.422028,134.423691 105.449295,134.467377 
	C105.567337,134.656479 105.733849,134.815323 105.882721,134.985184 
	C105.914345,135.155792 105.945976,135.326416 105.706268,135.932159 
	C104.614082,136.528061 103.793236,136.688843 102.856903,136.658234 
	C102.537956,136.234818 102.286674,136.080750 101.994308,136.002625 
	C102.001045,136.000610 101.992256,136.013489 101.973244,135.710724 
	C101.620201,134.941757 101.286171,134.475555 100.681671,134.087036 
	C100.069466,134.823288 99.727730,135.481827 99.006134,136.102295 
	C97.754295,136.393127 96.882324,136.722046 96.010674,137.022339 
	C96.010994,136.993729 96.060074,137.023163 95.887077,137.085815 
	C95.634064,137.237854 95.468742,137.371765 95.488281,137.409195 
	C95.592178,137.608261 95.742409,137.783142 96.071487,138.146774 
	C96.510864,138.583145 96.755363,138.839142 97.002815,139.430786 
	C97.364441,140.522675 97.723106,141.278915 98.094826,142.384399 
	C99.389030,142.769409 100.670181,142.805161 102.074493,143.091125 
	C102.509171,143.526047 102.820671,143.710754 103.125771,143.849152 
	C103.119362,143.802811 103.211151,143.784683 103.141449,144.209930 
	C103.059273,145.772964 103.046791,146.910751 103.034309,148.048538 
	C103.034309,148.048538 102.994789,148.011932 102.766891,148.170792 
	C102.357956,148.883102 102.176926,149.436539 101.995895,149.989975 
	C101.995888,149.989975 102.000443,149.999557 101.590973,149.999512 
	C100.097511,150.009872 99.013519,150.020264 97.574875,149.992203 
	C94.815285,148.889877 92.410347,147.826035 90.003685,146.460205 
	C90.003822,145.547028 90.005692,144.935837 90.270454,144.231659 
	C90.359062,143.415649 90.184784,142.692627 90.009422,141.633972 
	C92.132278,137.586182 87.885826,137.005310 86.854584,134.896851 
	C86.869728,134.942230 86.775383,134.926376 87.092369,134.758774 
	C87.556526,133.675293 87.703697,132.759415 87.866234,131.893280 
	C87.881599,131.943008 87.777870,131.934097 88.108810,131.736603 
	C88.579071,130.539520 88.718391,129.539902 89.087700,128.328796 
	C90.105873,127.972481 90.894058,127.827660 91.762627,127.668068 
	C91.437370,126.778397 91.162811,126.027405 90.912186,124.799347 
	C90.903549,123.684891 90.870987,123.047501 90.802429,122.165062 
	C90.809219,121.587914 90.913345,121.276314 91.311325,120.783478 
	C91.646248,120.188316 91.748665,119.794899 91.791595,119.302177 
	C91.732117,119.202873 91.871712,119.018181 92.053879,118.951088 
	C92.325005,118.792946 92.506424,118.657623 92.487556,118.618217 
	C92.384827,118.403664 92.232758,118.212730 92.103233,117.728127 
	C92.410271,116.960747 92.711739,116.478905 93.258011,115.823700 
	C93.659103,115.085365 93.815399,114.520378 93.988785,113.972473 
	C94.005875,113.989548 93.957916,113.984566 94.208717,113.821075 
	C94.596489,113.290047 94.733452,112.922501 94.885056,112.388206 
	C94.899681,112.221458 95.127884,111.976509 95.326736,111.854218 
	C95.765274,111.512680 95.911591,111.242798 95.980225,110.956467 
	C95.995888,110.990639 95.930077,110.954269 96.352325,110.967270 
	C97.619438,110.946938 98.464294,110.913605 99.566635,110.647049 
	C101.927834,109.911209 104.031548,109.408592 106.538406,108.809654 
	C107.170914,107.566406 108.338821,105.270790 109.917999,102.987381 
	C112.553467,103.003067 114.777664,103.006523 116.980301,103.281174 
	C116.423485,104.135307 115.888222,104.718246 115.352966,105.301186 
	C115.706734,105.550453 116.060501,105.799721 116.414261,106.048996 
	C116.942131,105.036324 117.469994,104.023651 118.407883,102.994743 
	C120.567818,103.629524 122.317734,104.280533 123.810562,105.143112 
	C124.181099,106.180733 124.808739,107.006790 125.436371,107.832840 
	C125.942192,106.523766 126.448006,105.214684 127.256714,103.618980 
	C131.700073,103.221024 135.840530,103.109695 139.885559,103.317398 
	C138.728088,104.551109 137.666046,105.465782 137.060822,105.987038 
	C139.335266,107.436661 141.504242,108.819061 143.258606,109.937210 
	C145.274551,108.583710 147.441574,107.128784 149.605652,105.668228 
	C148.470886,104.766647 147.339035,103.870697 146.654022,102.973404 
	C150.131470,103.022598 153.162094,103.073158 156.241577,103.320816 
	C156.390259,103.799225 156.585876,103.972206 156.868652,104.444427 
	C156.848846,106.474442 156.837708,108.096901 156.829971,109.791931 
	C156.833374,109.864517 156.688507,109.853004 156.284088,109.856140 
	C145.334213,110.362015 138.268799,115.164291 136.677414,126.106422 
	C133.538162,126.106422 131.003677,125.841141 128.578995,126.241196 
	C127.650887,126.394333 126.973709,128.068344 126.222168,129.401474 
	C127.460709,132.931778 128.659256,136.109924 130.072235,139.856659 
	C128.126633,139.603485 126.961845,139.451920 126.522552,139.394760 
	C126.392746,141.902252 126.279701,144.085876 126.219452,145.249710 
	C127.714027,146.657700 129.457932,147.580307 129.768173,148.852539 
	C129.966476,149.665771 128.045517,150.995789 126.608490,152.063538 
	C121.703278,151.384598 116.868530,153.341888 112.023140,150.245987 
	C113.949242,149.142014 115.165131,148.445114 115.506844,148.249252 
	C114.258560,145.890121 113.236931,143.959335 112.260773,142.114502 
	C111.637611,142.647324 110.795601,143.367294 109.953590,144.087250 
M98.003716,118.996506 
	C98.003716,118.996506 98.041588,118.939491 98.014313,119.665237 
	C98.009834,120.388535 98.005348,121.111824 97.627678,122.200027 
	C97.425827,122.838196 97.223984,123.476357 97.203987,124.409393 
	C97.463936,124.304123 97.723892,124.198860 98.648026,123.970894 
	C99.097328,123.973824 99.546631,123.976753 100.193947,124.411209 
	C100.376740,124.683998 100.622711,124.875748 101.124519,125.599922 
	C101.550728,126.495117 101.976944,127.390312 102.616722,128.734070 
	C103.249832,127.098801 103.658974,126.041992 104.503510,124.711342 
	C104.648468,124.406418 104.793427,124.101501 105.394447,123.340744 
	C105.596275,122.231964 105.798111,121.123177 105.998970,119.269287 
	C105.380348,118.085045 104.761726,116.900803 103.553658,115.889633 
	C103.085342,116.279190 102.617020,116.668747 101.347916,117.023254 
	C100.546883,117.028038 99.745850,117.032822 98.997078,117.001534 
	C98.997078,117.001534 98.976074,117.061455 98.844360,116.712112 
	C98.557693,116.766891 98.271019,116.821671 97.814888,117.455345 
	C97.794044,117.655319 97.773201,117.855301 97.507011,118.298798 
	C97.693855,118.523132 97.880692,118.747459 98.003716,118.996506 
M108.038986,117.590935 
	C108.795189,118.357300 109.551392,119.123665 110.813835,120.152603 
	C112.545235,118.423897 114.276634,116.695190 116.069420,114.905205 
	C115.668541,114.009407 115.036850,112.597839 114.361740,111.089233 
	C110.027321,110.478401 108.176506,112.661606 108.038986,117.590935 
M127.219948,119.461639 
	C127.990494,120.434921 128.761032,121.408211 129.169510,121.924156 
	C130.526077,120.238022 131.807083,118.645805 132.883652,117.307709 
	C132.100357,115.315384 131.211075,113.053482 130.511154,111.273186 
	C128.608185,111.805389 126.631912,112.358086 125.011787,112.811180 
	C125.011787,114.922836 125.011787,117.362862 125.011787,119.814301 
	C125.313705,119.732880 125.940544,119.563843 127.219948,119.461639 
z"/>
<path fill="#4756DD" opacity="1.000000" stroke="none" 
	d="
M108.910759,76.050911 
	C111.081940,73.463043 113.253128,70.875175 115.940491,68.040329 
	C116.719337,67.600586 116.903625,67.350136 117.009521,67.042000 
	C117.009521,67.042000 116.997246,66.996933 117.225151,66.903564 
	C117.711212,66.631790 117.900902,66.397865 118.022110,66.108414 
	C118.738457,65.380333 119.454803,64.652252 120.716888,63.582748 
	C123.736092,62.925430 126.209557,62.609535 128.771118,62.745155 
	C129.816696,67.377693 130.774170,71.558723 132.021500,77.005524 
	C135.478897,70.797333 138.192398,65.924904 141.195511,61.055191 
	C141.674179,61.097260 141.863205,61.136620 142.312775,61.416679 
	C143.999985,61.783283 145.426666,61.909184 146.932007,62.040154 
	C147.010681,62.045219 147.044586,62.199211 147.115143,62.326729 
	C147.185684,62.454247 147.565567,62.579018 147.565567,62.579018 
	C147.565567,62.579018 147.889923,62.319294 148.234802,62.226089 
	C149.703796,62.500820 150.827896,62.868763 151.951996,63.236702 
	C156.973694,70.001945 161.995392,76.767189 167.037079,84.218384 
	C164.133575,86.278992 163.334854,88.329086 164.578568,91.419296 
	C165.291199,93.189919 165.419998,95.195526 165.454926,97.246666 
	C161.472916,97.297112 157.847626,97.196236 153.901886,97.080872 
	C153.057999,97.366737 152.534561,97.667084 151.762177,98.020706 
	C151.344681,98.053925 151.176132,98.033852 150.722076,97.719437 
	C147.130508,97.149887 143.824478,96.874672 139.447922,96.510338 
	C141.691986,95.208626 142.875107,94.522331 144.299713,93.779602 
	C144.541168,93.723160 144.984497,93.945496 145.173279,94.222862 
	C146.234879,94.411674 147.873611,94.279610 147.871399,94.240761 
	C147.696686,91.165260 147.393539,88.097046 146.846268,84.693825 
	C145.942001,84.248566 145.294815,84.068932 144.640564,84.037781 
	C139.099289,83.773872 133.946274,84.697701 129.550278,88.965073 
	C127.764320,88.639580 126.347542,88.316849 124.728760,87.718903 
	C123.927994,86.005890 123.329224,84.568085 122.631477,82.892632 
	C121.257935,84.172989 120.198837,85.160233 118.988342,85.795326 
	C115.891998,76.311317 115.891998,76.311317 108.910759,76.050911 
M125.748215,66.473328 
	C125.268776,66.248909 124.789345,66.024483 124.309906,65.800064 
	C124.209518,66.532173 124.109131,67.264282 124.328644,68.472267 
	C124.883995,67.981659 125.439346,67.491058 125.748215,66.473328 
M126.531540,71.758888 
	C126.403572,72.149506 126.254562,72.535431 126.165565,72.934738 
	C126.147957,73.013748 126.361015,73.144173 126.467690,73.250885 
	C126.595474,72.860283 126.723259,72.469688 126.531540,71.758888 
M128.468445,76.240471 
	C128.596405,75.849861 128.745407,75.463951 128.834412,75.064651 
	C128.852020,74.985649 128.638962,74.855225 128.532288,74.748505 
	C128.404510,75.139099 128.276733,75.529701 128.468445,76.240471 
M138.648148,74.331444 
	C138.529327,74.578606 138.410522,74.825768 138.291718,75.072929 
	C138.528748,75.144691 138.765778,75.216454 139.002808,75.288223 
	C139.028671,74.947952 139.054550,74.607689 138.648148,74.331444 
M146.482864,64.587715 
	C146.482864,64.587715 146.416702,64.476730 146.482864,64.587715 
z"/>
<path fill="#A25943" opacity="1.000000" stroke="none" 
	d="
M185.860870,168.054688 
	C185.049164,166.879974 184.237457,165.705261 183.193512,164.194458 
	C182.497498,164.553650 181.573044,165.030731 180.654129,165.504959 
	C178.716385,163.814697 176.702820,162.058304 174.325714,159.984787 
	C173.435730,163.120377 167.717331,162.758347 169.493011,167.946671 
	C165.709930,168.537292 164.117432,167.073715 163.651093,163.681976 
	C163.379654,161.707687 162.032120,159.881348 161.168793,157.988449 
	C161.168793,157.988449 160.929031,157.661545 160.930145,157.120224 
	C160.934326,156.115219 160.937393,155.651550 160.881134,154.933502 
	C160.567963,154.455750 160.314087,154.232376 160.022095,153.673218 
	C159.997086,152.888565 160.010193,152.439713 160.286713,151.758392 
	C160.335892,149.620102 160.121689,147.714279 159.896484,145.430939 
	C160.342560,143.373718 160.799667,141.693985 161.513443,139.857269 
	C162.241165,138.833557 162.712219,137.966873 163.522064,137.045471 
	C165.302200,136.295471 166.743546,135.600174 168.558655,134.845306 
	C172.289612,134.971817 175.646790,135.157883 179.226852,135.547394 
	C180.136215,136.207458 180.822678,136.664093 181.402084,137.525360 
	C181.603455,140.153992 181.846436,142.389435 182.231949,144.600006 
	C183.699387,153.014511 187.313934,155.250961 195.164307,152.659958 
	C196.416779,154.323166 197.669235,155.986374 198.969742,158.312531 
	C196.255554,161.983231 193.493317,164.990997 190.328735,167.999664 
	C188.571213,168.018616 187.216049,168.036652 185.860870,168.054688 
M167.272217,143.300812 
	C166.251907,144.525192 165.231583,145.749573 164.211273,146.973953 
	C165.308151,147.503387 166.405045,148.032822 167.501923,148.562256 
	C167.648254,146.931046 167.794586,145.299820 167.272217,143.300812 
z"/>
<path fill="#372B32" opacity="1.000000" stroke="none" 
	d="
M108.457291,76.138046 
	C115.891998,76.311317 115.891998,76.311317 118.988861,86.154213 
	C120.267494,89.875130 121.394203,92.885017 122.983170,95.979324 
	C125.281746,96.025589 127.118073,95.987427 129.035172,96.105957 
	C129.115952,96.262650 129.118317,96.615227 129.075562,96.999077 
	C129.012878,97.639641 128.992950,97.896355 128.559021,98.252243 
	C126.451195,98.283272 124.757378,98.215126 122.913681,97.893341 
	C122.155472,97.807198 121.547150,97.974678 120.482506,98.242027 
	C111.094170,98.286415 102.162148,98.230934 93.230125,98.175461 
	C92.460251,96.412315 91.690384,94.649162 91.019226,92.164490 
	C92.565536,90.742516 94.013138,90.042053 96.360229,88.906357 
	C92.864624,85.785370 90.176292,83.385139 87.487961,80.984917 
	C86.347816,76.719482 89.453323,76.496498 92.167175,76.387711 
	C97.439758,76.176353 102.724266,76.262360 108.457291,76.138046 
M99.641670,86.955605 
	C101.123184,88.351028 102.604698,89.746445 104.587212,91.613754 
	C105.631393,89.169807 106.331230,87.531830 107.296143,85.273453 
	C103.982849,85.726425 101.662910,86.043594 99.641670,86.955605 
z"/>
<path fill="#F4B62C" opacity="1.000000" stroke="none" 
	d="
M93.132965,98.340225 
	C102.162148,98.230934 111.094170,98.286415 120.833992,98.316345 
	C122.115715,98.242851 122.589645,98.194908 123.063568,98.146973 
	C124.757378,98.215126 126.451195,98.283272 128.964386,98.335785 
	C130.698456,97.898499 131.613159,97.476845 132.793472,97.135208 
	C134.289520,97.115898 135.519989,97.016579 137.090851,97.035240 
	C137.953079,97.608826 138.474915,98.064423 138.992798,98.664391 
	C138.988846,98.808754 139.038177,99.093353 139.335144,99.382248 
	C141.271530,99.787346 142.910736,100.001015 144.550385,100.004341 
	C157.802521,100.031227 171.055664,99.946877 184.305740,100.114380 
	C185.854462,100.133957 187.386475,101.476936 188.926224,102.206398 
	C187.009369,102.597206 185.092514,102.988022 182.751465,104.012032 
	C182.190186,114.439896 182.053101,124.234558 181.602234,134.164368 
	C180.627960,134.465485 179.967453,134.631470 179.293335,134.386566 
	C179.187759,123.652817 179.095795,113.329979 179.294769,102.999840 
	C180.081268,102.899956 180.576813,102.807373 181.072372,102.714783 
	C180.999313,102.487679 180.926254,102.260574 180.853195,102.033470 
	C180.234222,102.353813 179.615234,102.674149 178.556305,102.883133 
	C175.402359,102.746422 172.688385,102.721077 169.632782,102.483170 
	C164.918304,102.548943 160.545425,102.827278 156.162933,103.111931 
	C156.153305,103.118248 156.192703,103.123711 156.192703,103.123711 
	C153.162094,103.073158 150.131470,103.022598 146.209106,102.902405 
	C143.538574,102.887962 141.759781,102.943161 139.980988,102.998360 
	C135.840530,103.109695 131.700073,103.221024 126.949631,103.663193 
	C125.582314,104.306526 124.824982,104.619034 124.067650,104.931534 
	C122.317734,104.280533 120.567818,103.629524 118.158905,102.983910 
	C117.499908,102.989304 117.001862,103.009979 117.001862,103.009979 
	C114.777664,103.006523 112.553467,103.003067 109.508965,102.800354 
	C98.154610,102.476837 87.620552,102.352562 76.976097,102.024666 
	C76.615120,102.025002 76.364555,102.228973 75.967743,102.854836 
	C75.597412,109.926979 75.373329,116.577240 74.792770,123.180923 
	C73.789635,122.381439 73.117485,121.648567 72.504425,120.869232 
	C72.015205,120.247292 71.597977,119.568726 71.148788,118.915291 
	C71.148788,113.845879 71.148788,108.776466 71.148788,103.148468 
	C69.781242,102.979355 68.223907,102.786774 66.397949,102.005539 
	C67.580368,100.950706 69.020882,100.125267 70.484337,100.082359 
	C75.954117,99.921967 81.434204,100.118103 86.904419,99.965401 
	C88.930077,99.908844 90.939148,99.258575 92.955788,98.879066 
	C92.955788,98.879066 93.035805,98.504982 93.132965,98.340225 
z"/>
<path fill="#A05943" opacity="1.000000" stroke="none" 
	d="
M142.052246,61.175980 
	C141.863205,61.136620 141.674179,61.097260 140.862305,60.968155 
	C135.445282,57.392761 135.406891,56.359974 138.449768,51.612701 
	C139.467697,50.024620 139.361694,47.716145 139.769455,45.736973 
	C138.091919,45.955391 136.409531,46.142525 134.738449,46.402454 
	C133.477325,46.598621 132.230682,46.887901 130.945526,46.773926 
	C130.869110,45.930672 130.824768,45.449230 130.723663,44.629227 
	C129.101547,43.584179 127.536163,42.877686 125.954254,41.793350 
	C125.915825,40.915173 125.893936,40.414841 125.872047,39.914505 
	C128.503403,37.792149 131.134766,35.669796 134.331818,33.091183 
	C133.925766,30.977446 137.073654,25.330532 140.151794,24.664492 
	C145.756516,23.451754 149.435074,25.190851 150.668198,29.636314 
	C151.907410,34.103722 149.401016,37.380909 143.016815,39.733837 
	C143.474808,42.691216 143.929520,45.627354 144.384232,48.563492 
	C144.568130,48.168152 144.752014,47.772812 144.935898,47.377472 
	C148.237869,49.040108 152.382660,49.967892 154.632309,52.548046 
	C157.562424,55.908672 155.113434,59.721214 152.240723,63.016449 
	C150.827896,62.868763 149.703796,62.500820 148.028427,62.165413 
	C147.477158,62.197948 147.044586,62.199211 147.044586,62.199211 
	C147.044586,62.199211 147.010681,62.045219 146.731613,61.739365 
	C144.985779,61.347668 143.519012,61.261826 142.052246,61.175980 
z"/>
<path fill="#E6A48C" opacity="1.000000" stroke="none" 
	d="
M109.977119,144.503067 
	C110.795601,143.367294 111.637611,142.647324 112.260773,142.114502 
	C113.236931,143.959335 114.258560,145.890121 115.506844,148.249252 
	C115.165131,148.445114 113.949242,149.142014 112.023140,150.245987 
	C116.868530,153.341888 121.703278,151.384598 126.622070,152.460297 
	C129.120544,153.305161 131.139236,153.722672 133.147583,154.530975 
	C133.030243,155.950577 132.923248,156.979385 132.816269,158.008209 
	C127.038963,157.604553 127.038963,157.604553 124.582932,167.506058 
	C118.758186,167.628967 113.392426,167.281815 108.044128,166.573822 
	C110.064659,164.919312 112.067734,163.625671 114.070801,162.332031 
	C113.891716,162.110779 113.712639,161.889526 113.533554,161.668274 
	C111.007492,162.064575 108.481422,162.460861 105.955353,162.857162 
	C105.955353,160.954590 105.955353,159.052002 105.955353,157.149429 
	C106.378075,157.091599 106.800797,157.033783 107.223518,156.975952 
	C107.716354,158.121277 108.209198,159.266586 108.702034,160.411911 
	C109.134903,160.391403 109.567780,160.370895 110.000648,160.350388 
	C110.000648,155.206558 110.000648,150.062714 109.977119,144.503067 
z"/>
<path fill="#E6A289" opacity="1.000000" stroke="none" 
	d="
M90.005417,146.762177 
	C92.410347,147.826035 94.815285,148.889877 97.617722,150.238708 
	C98.011200,150.690552 98.007187,150.857422 98.003166,151.024292 
	C95.260132,155.901688 92.517097,160.779068 89.369324,165.904358 
	C84.214668,163.876083 79.464745,161.599899 74.388550,159.167389 
	C74.971863,156.813507 75.505684,154.659363 76.144882,152.530334 
	C76.250259,152.555466 76.461739,152.502762 76.819641,152.638016 
	C79.436394,149.824753 81.695244,146.876221 84.265053,144.066742 
	C85.420242,144.501312 86.264458,144.796829 87.266716,145.327850 
	C88.284973,145.962967 89.145195,146.362579 90.005417,146.762177 
z"/>
<path fill="#E7A38B" opacity="1.000000" stroke="none" 
	d="
M130.977585,47.135735 
	C132.230682,46.887901 133.477325,46.598621 134.738449,46.402454 
	C136.409531,46.142525 138.091919,45.955391 139.769455,45.736973 
	C139.361694,47.716145 139.467697,50.024620 138.449768,51.612701 
	C135.406891,56.359974 135.445282,57.392761 140.572662,60.965446 
	C138.192398,65.924904 135.478897,70.797333 132.021500,77.005524 
	C130.774170,71.558723 129.816696,67.377693 128.952484,62.511536 
	C130.076706,60.412987 131.107651,58.999577 132.870743,56.582428 
	C127.047623,58.574203 124.614975,55.817844 122.938248,51.844875 
	C123.131821,51.035130 123.325394,50.225380 123.868408,49.457966 
	C124.805550,49.711979 125.393234,49.923660 125.980927,50.135345 
	C126.077957,49.801357 126.174980,49.467373 126.272011,49.133385 
	C125.506561,49.077965 124.741104,49.022541 123.975655,48.967117 
	C123.158409,48.333931 122.341164,47.700745 121.252632,46.857376 
	C122.169083,46.387833 122.946594,45.989475 124.203415,45.260445 
	C125.112083,44.010246 125.541435,43.090721 125.970787,42.171196 
	C127.536163,42.877686 129.101547,43.584179 130.479691,44.659130 
	C130.193710,45.679394 130.094955,46.331196 129.750671,47.184196 
	C129.574387,48.355183 129.643616,49.324974 129.849564,50.458031 
	C130.220459,50.572857 130.454636,50.524414 130.688828,50.475971 
	C130.500580,50.281162 130.312347,50.086353 130.169281,49.651764 
	C130.442841,48.985870 130.671219,48.559757 130.928619,47.884911 
	C130.964294,47.469368 130.970932,47.302551 130.977585,47.135735 
z"/>
<path fill="#42C0F3" opacity="1.000000" stroke="none" 
	d="
M81.778122,56.354492 
	C84.108582,54.248398 86.328102,52.000454 88.796112,50.070232 
	C92.289558,47.338020 96.436676,45.103966 94.075066,39.270664 
	C101.091431,42.005714 107.493889,44.501457 114.820396,47.357407 
	C109.367599,51.971123 104.520645,56.072220 98.302086,61.333851 
	C97.582596,56.220882 97.044273,52.395302 96.406326,47.861801 
	C92.096786,51.311295 87.903946,54.667385 83.133430,57.958424 
	C82.296555,57.380409 82.037338,56.867451 81.778122,56.354492 
z"/>
<path fill="#9F5A46" opacity="1.000000" stroke="none" 
	d="
M202.166992,158.956223 
	C204.558640,155.572113 206.791519,157.477249 209.238358,159.001495 
	C211.330414,160.304718 213.712524,161.132065 215.885300,162.318344 
	C219.119934,164.084351 222.283203,165.981049 225.476837,167.822144 
	C225.295349,168.329056 225.113846,168.835953 224.932358,169.342865 
	C215.890350,169.342865 206.848328,169.342865 197.675781,169.032669 
	C199.117447,167.936035 200.689621,167.149582 202.597610,166.195160 
	C202.472260,164.087982 202.319626,161.522110 202.166992,158.956223 
z"/>
<path fill="#FDBC1C" opacity="1.000000" stroke="none" 
	d="
M132.790894,158.404724 
	C132.923248,156.979385 133.030243,155.950577 133.395966,154.224213 
	C134.385422,148.985413 135.116150,144.444138 135.904877,139.498077 
	C136.424255,135.765747 136.885666,132.438202 137.736969,129.058746 
	C139.437988,129.017548 140.749100,129.028244 142.056503,129.444717 
	C141.303177,133.943893 140.553574,138.037308 139.562820,142.405853 
	C138.879013,145.694382 138.247894,148.695465 138.050262,151.724854 
	C137.875900,154.397659 139.321274,155.211761 142.038773,154.340820 
	C147.923599,154.721725 153.538040,154.751312 159.452881,154.836700 
	C160.149017,154.990967 160.544739,155.089417 160.940460,155.187866 
	C160.937393,155.651550 160.934326,156.115219 160.882446,156.923218 
	C155.105072,157.262543 149.376526,157.257538 142.810669,157.213898 
	C141.002853,157.209427 140.032364,157.243637 139.061874,157.277832 
	C133.662796,157.324265 135.805222,162.269440 134.249969,164.804184 
	C133.445908,166.114624 133.180252,167.755386 132.671341,169.246918 
	C132.100769,169.106857 131.530197,168.966782 130.959625,168.826721 
	C131.561600,165.484894 132.163559,162.143051 132.790894,158.404724 
z"/>
<path fill="#4857DE" opacity="1.000000" stroke="none" 
	d="
M71.086121,164.771652 
	C69.225861,168.373154 66.409637,169.951019 62.276264,169.313187 
	C60.348137,169.015640 58.336029,169.262817 56.361984,169.262238 
	C49.108173,169.260101 47.839729,168.118958 47.199150,160.228210 
	C49.700310,160.591232 51.771355,161.359070 54.059380,162.207336 
	C57.393501,158.599274 61.005905,159.084290 64.484222,162.546661 
	C66.078033,161.366287 67.527390,160.292877 69.353340,159.285889 
	C70.417030,159.689621 71.104141,160.026978 71.726006,160.672424 
	C71.469215,162.244232 71.277672,163.507935 71.086121,164.771652 
z"/>
<path fill="#4857DE" opacity="1.000000" stroke="none" 
	d="
M65.200989,140.293732 
	C63.488045,145.189743 67.005478,148.070084 69.229385,151.711365 
	C67.429924,152.895554 65.866058,153.726501 64.246498,154.587021 
	C60.640820,150.703735 57.044590,151.269196 53.722572,154.492920 
	C51.963070,153.549789 50.396545,152.710098 48.830025,151.870392 
	C49.741638,150.542221 50.497650,149.064957 51.597462,147.917114 
	C53.843475,145.573044 54.093220,143.111969 52.925266,140.121643 
	C57.246475,140.026398 61.223732,140.160065 65.200989,140.293732 
z"/>
<path fill="#40BDF1" opacity="1.000000" stroke="none" 
	d="
M48.532364,152.101639 
	C50.396545,152.710098 51.963070,153.549789 53.722572,154.492920 
	C57.044590,151.269196 60.640820,150.703735 64.246498,154.587021 
	C65.866058,153.726501 67.429924,152.895554 69.316612,152.025696 
	C69.639435,151.986771 69.881836,151.963226 70.031097,152.249695 
	C70.330452,153.081177 70.480553,153.626190 70.481438,154.429077 
	C68.791374,155.872116 65.553986,156.549927 68.976753,159.219482 
	C67.527390,160.292877 66.078033,161.366287 64.484222,162.546661 
	C61.005905,159.084290 57.393501,158.599274 54.059380,162.207336 
	C51.771355,161.359070 49.700310,160.591232 47.236206,159.810791 
	C47.307003,157.309738 47.770855,154.821320 48.532364,152.101639 
z"/>
<path fill="#51BAE4" opacity="1.000000" stroke="none" 
	d="
M165.811630,97.095337 
	C165.419998,95.195526 165.291199,93.189919 164.578568,91.419296 
	C163.334854,88.329086 164.133575,86.278992 167.190781,84.558701 
	C170.398529,84.213081 173.472565,84.213081 175.660110,84.213081 
	C176.814178,86.553490 177.933807,88.118385 178.312195,89.845665 
	C178.554367,90.951103 177.919678,92.424278 177.286102,93.502197 
	C176.463211,94.902214 175.250885,96.073326 173.674744,97.755829 
	C170.699417,97.810905 168.255524,97.453117 165.811630,97.095337 
M168.402969,87.454918 
	C169.709122,87.597580 171.015274,87.740250 172.321426,87.882912 
	C172.321777,87.594162 172.322144,87.305412 172.322495,87.016663 
	C171.218918,87.016663 170.115341,87.016663 168.402969,87.454918 
z"/>
<path fill="#E7A38B" opacity="1.000000" stroke="none" 
	d="
M195.073273,152.344604 
	C187.313934,155.250961 183.699387,153.014511 182.231949,144.600006 
	C181.846436,142.389435 181.603455,140.153992 181.488037,137.501129 
	C181.681046,137.072266 181.858688,137.012650 182.141510,137.077393 
	C182.617401,137.130722 182.810486,137.119308 183.003571,137.107895 
	C186.996445,142.081680 190.989334,147.055466 195.073273,152.344604 
z"/>
<path fill="#9F5A46" opacity="1.000000" stroke="none" 
	d="
M122.589996,51.931831 
	C124.614975,55.817844 127.047623,58.574203 132.870743,56.582428 
	C131.107651,58.999577 130.076706,60.412987 128.864380,62.060020 
	C126.209557,62.609535 123.736092,62.925430 120.943092,63.373032 
	C116.479919,58.787968 116.864677,56.056976 122.589996,51.931831 
z"/>
<path fill="#251B2A" opacity="1.000000" stroke="none" 
	d="
M69.353340,159.285889 
	C65.553986,156.549927 68.791374,155.872116 70.812546,154.392303 
	C71.845436,153.824203 72.398003,153.550766 73.222977,153.144684 
	C73.963928,152.631134 74.432495,152.250214 75.084518,151.988403 
	C75.519516,152.251022 75.776688,152.383606 76.039505,152.505219 
	C75.505684,154.659363 74.971863,156.813507 74.388550,159.167389 
	C79.464745,161.599899 84.214668,163.876083 89.294815,166.281860 
	C88.870361,166.841354 87.889336,167.817749 87.397125,167.613892 
	C83.739685,166.099091 80.179268,164.350021 76.028702,162.353333 
	C74.243088,161.476212 73.017166,160.920273 71.791245,160.364319 
	C71.104141,160.026978 70.417030,159.689621 69.353340,159.285889 
z"/>
<path fill="#FDBC1C" opacity="1.000000" stroke="none" 
	d="
M74.901062,151.869293 
	C74.432495,152.250214 73.963928,152.631134 72.936707,152.996063 
	C72.113754,152.644653 71.849464,152.309204 71.585175,151.973770 
	C71.646210,145.965103 71.707253,139.956421 71.733788,133.255859 
	C71.538155,132.268448 71.301765,132.057098 71.127258,131.639099 
	C71.442749,130.533920 71.621101,129.719513 71.821838,128.574799 
	C71.842911,127.800842 71.841606,127.357201 72.025299,126.681076 
	C72.763687,126.255318 73.317085,126.062027 74.201172,125.904556 
	C74.752716,125.948387 74.973572,125.956398 75.257065,126.342033 
	C75.277504,127.481659 75.235313,128.243652 74.999405,129.082550 
	C74.934944,129.437698 75.064201,129.715973 75.256485,130.459595 
	C75.258972,137.184708 75.198433,143.444489 75.079620,150.063293 
	C74.981255,150.904648 74.941154,151.386963 74.901062,151.869293 
z"/>
<path fill="#31242A" opacity="1.000000" stroke="none" 
	d="
M201.838776,158.943054 
	C202.319626,161.522110 202.472260,164.087982 202.597610,166.195160 
	C200.689621,167.149582 199.117447,167.936035 197.288788,168.928345 
	C195.288834,169.172043 193.545364,169.209869 191.352448,168.889359 
	C190.845688,168.353607 190.788376,168.176178 190.731079,167.998764 
	C193.493317,164.990997 196.255554,161.983231 199.072021,158.648758 
	C199.921021,158.524658 200.715790,158.727280 201.838776,158.943054 
z"/>
<path fill="#E6A289" opacity="1.000000" stroke="none" 
	d="
M87.352127,81.330673 
	C90.176292,83.385139 92.864624,85.785370 96.360229,88.906357 
	C94.013138,90.042053 92.565536,90.742516 90.961678,91.797523 
	C85.303078,90.788681 83.939537,86.808884 87.352127,81.330673 
z"/>
<path fill="#F8753D" opacity="1.000000" stroke="none" 
	d="
M53.300400,120.467697 
	C51.591434,118.974899 50.174820,117.658829 48.758205,116.342758 
	C49.398136,116.796043 50.038067,117.249336 50.677998,117.702629 
	C52.393921,116.679649 54.109844,115.656662 55.825768,114.633682 
	C54.822140,113.777618 53.818512,112.921547 52.814884,112.065475 
	C54.668915,112.320862 56.522945,112.576248 58.595211,112.861694 
	C59.617870,117.928604 58.145119,120.457596 53.300400,120.467697 
z"/>
<path fill="#31BEF3" opacity="1.000000" stroke="none" 
	d="
M77.900314,95.920441 
	C77.861984,85.626678 77.823662,75.332909 78.196556,64.550705 
	C79.137871,64.079224 79.667961,64.096191 80.198059,64.113159 
	C80.175873,74.406471 80.153687,84.699783 79.749634,95.489075 
	C78.878624,95.963516 78.389465,95.941978 77.900314,95.920441 
z"/>
<path fill="#FF743A" opacity="1.000000" stroke="none" 
	d="
M73.870476,125.868736 
	C73.317085,126.062027 72.763687,126.255318 71.651482,126.669746 
	C69.412735,126.559105 67.732796,126.227325 66.052872,125.895538 
	C65.769203,123.225151 65.485542,120.554749 65.195168,117.821220 
	C67.752869,118.440086 69.112122,118.768974 70.810089,119.006577 
	C71.597977,119.568726 72.015205,120.247292 72.504425,120.869232 
	C73.117485,121.648567 73.789635,122.381439 74.845757,123.436035 
	C75.210327,124.085068 75.165413,124.432419 74.870865,124.911888 
	C74.370979,125.318909 74.120728,125.593819 73.870476,125.868736 
z"/>
<path fill="#FFB2CB" opacity="1.000000" stroke="none" 
	d="
M96.999855,139.095139 
	C96.755363,138.839142 96.510864,138.583145 96.089439,137.905777 
	C95.912506,137.484406 96.060074,137.023163 96.060074,137.023163 
	C96.060074,137.023163 96.010994,136.993729 96.381409,137.055618 
	C97.629875,136.791794 98.507942,136.466095 99.386002,136.140381 
	C99.727730,135.481827 100.069466,134.823288 100.712540,134.379318 
	C101.340004,135.067093 101.666130,135.540298 101.992256,136.013489 
	C101.992256,136.013489 102.001045,136.000610 102.055672,136.245270 
	C102.397659,136.609848 102.685020,136.729752 102.972389,136.849640 
	C103.793236,136.688843 104.614082,136.528061 105.701530,136.192413 
	C105.703835,138.500244 105.439529,140.982941 104.725830,143.764038 
	C103.921333,143.969849 103.566246,143.877258 103.211151,143.784668 
	C103.211151,143.784683 103.119362,143.802811 103.041718,143.574448 
	C102.626488,143.177704 102.288910,143.009308 101.951332,142.840927 
	C100.670181,142.805161 99.389030,142.769409 98.288940,142.177231 
	C97.979942,140.778915 97.489899,139.937027 96.999855,139.095139 
z"/>
<path fill="#FFBD01" opacity="1.000000" stroke="none" 
	d="
M92.551399,98.842712 
	C90.939148,99.258575 88.930077,99.908844 86.904419,99.965401 
	C81.434204,100.118103 75.954117,99.921967 70.484337,100.082359 
	C69.020882,100.125267 67.580368,100.950706 66.033279,101.829590 
	C64.580498,100.548477 64.019745,99.161621 67.028893,98.782967 
	C68.582764,98.587433 70.106628,98.153389 72.283722,97.427597 
	C77.299667,97.095161 81.675957,97.162239 86.052246,97.229324 
	C86.256676,97.504166 86.461105,97.779022 86.971603,98.417297 
	C87.277672,98.780708 87.662514,98.960854 87.662514,98.960854 
	C87.662514,98.960854 88.087227,98.945633 88.087227,98.945633 
	C89.440491,98.899208 90.793747,98.852776 92.551399,98.842712 
z"/>
<path fill="#4F6AE3" opacity="1.000000" stroke="none" 
	d="
M80.472000,63.910347 
	C79.667961,64.096191 79.137871,64.079224 78.210648,64.089722 
	C77.813515,64.117188 77.430779,64.031303 77.104874,63.696632 
	C76.204895,62.856758 75.630821,62.351551 75.056755,61.846348 
	C74.877472,57.644871 76.858704,55.808331 81.409126,56.367325 
	C82.037338,56.867451 82.296555,57.380409 82.800385,58.055328 
	C82.278656,60.047371 81.512299,61.877453 80.472000,63.910347 
z"/>
<path fill="#FFBD01" opacity="1.000000" stroke="none" 
	d="
M189.315475,102.020828 
	C187.386475,101.476936 185.854462,100.133957 184.305740,100.114380 
	C171.055664,99.946877 157.802521,100.031227 144.550385,100.004341 
	C142.910736,100.001015 141.271530,99.787346 139.798401,99.348824 
	C151.367157,98.927971 162.769623,98.829437 174.172073,98.730911 
	C178.449814,98.751953 182.728577,98.836487 187.004898,98.768150 
	C189.254730,98.732208 190.605774,99.223045 189.315475,102.020828 
z"/>
<path fill="#F4B62C" opacity="1.000000" stroke="none" 
	d="
M71.725998,160.672424 
	C73.017166,160.920273 74.243088,161.476212 75.680496,162.186737 
	C75.814491,163.335602 75.902847,164.380096 75.620590,165.312378 
	C75.198036,166.708084 74.515015,168.024918 73.942772,169.375290 
	C73.052765,168.118286 72.162766,166.861282 71.179443,165.187973 
	C71.277672,163.507935 71.469215,162.244232 71.725998,160.672424 
z"/>
<path fill="#42C0F3" opacity="1.000000" stroke="none" 
	d="
M74.734413,61.985031 
	C75.630821,62.351551 76.204895,62.856758 76.928856,63.610115 
	C73.357567,66.722954 69.636375,69.587639 65.915184,72.452332 
	C65.436035,71.864006 64.956886,71.275681 64.477745,70.687363 
	C67.789185,67.832809 71.100624,64.978264 74.734413,61.985031 
z"/>
<path fill="#A76247" opacity="1.000000" stroke="none" 
	d="
M139.128494,157.643219 
	C140.032364,157.243637 141.002853,157.209427 142.323578,157.243683 
	C143.161423,161.158920 143.649033,165.005692 144.136658,168.852478 
	C143.533752,169.021729 142.930847,169.190964 142.327942,169.360214 
	C141.283676,165.576355 140.239395,161.792480 139.128494,157.643219 
z"/>
<path fill="#31242A" opacity="1.000000" stroke="none" 
	d="
M44.614281,132.977005 
	C49.215038,132.412430 53.445557,131.957489 57.671753,131.465485 
	C57.703217,131.461823 57.675659,130.951202 57.764679,130.668549 
	C57.764679,131.302063 57.858185,132.473068 57.751217,132.491684 
	C53.279743,133.269562 48.790329,133.944321 44.303150,134.631927 
	C44.283379,134.116241 44.263607,133.600571 44.614281,132.977005 
z"/>
<path fill="#31242A" opacity="1.000000" stroke="none" 
	d="
M105.628632,162.971634 
	C108.481422,162.460861 111.007492,162.064575 113.533554,161.668274 
	C113.712639,161.889526 113.891716,162.110779 114.070801,162.332031 
	C112.067734,163.625671 110.064659,164.919312 107.796600,166.878326 
	C105.403679,167.703827 103.275734,167.863937 101.147797,168.024063 
	C102.532494,166.378067 103.917206,164.732086 105.628632,162.971634 
z"/>
<path fill="#372B32" opacity="1.000000" stroke="none" 
	d="
M65.186188,140.277618 
	C61.223732,140.160065 57.246475,140.026398 52.801933,139.741852 
	C52.410572,139.082245 52.496254,138.126984 52.561024,138.128403 
	C57.230900,138.230484 61.899101,138.408600 66.070175,138.932770 
	C65.432404,139.597626 65.291908,139.910248 65.151405,140.222870 
	C65.151405,140.222870 65.171387,140.261520 65.186188,140.277618 
z"/>
<path fill="#C9B2A7" opacity="1.000000" stroke="none" 
	d="
M174.152603,98.556366 
	C162.769623,98.829437 151.367157,98.927971 139.501434,99.059921 
	C139.038177,99.093353 138.988846,98.808754 139.434509,98.535576 
	C143.589325,98.179527 147.298462,98.096649 151.007599,98.013771 
	C151.176132,98.033852 151.344681,98.053925 152.084274,98.072655 
	C153.177673,97.746002 153.699997,97.420677 154.222321,97.095352 
	C157.847626,97.196236 161.472916,97.297112 165.454926,97.246658 
	C168.255524,97.453117 170.699417,97.810905 173.573669,98.111908 
	C174.004044,98.055122 174.133133,98.381813 174.152603,98.556366 
z"/>
<path fill="#FFBD01" opacity="1.000000" stroke="none" 
	d="
M183.034393,136.629639 
	C182.810486,137.119308 182.617401,137.130722 182.184311,136.705368 
	C181.934891,135.522156 181.925461,134.775681 181.916016,134.029221 
	C182.053101,124.234558 182.190186,114.439896 182.616852,104.352104 
	C182.959351,114.756447 183.012283,125.453911 183.034393,136.629639 
z"/>
<path fill="#372B32" opacity="1.000000" stroke="none" 
	d="
M71.799454,128.905121 
	C71.621101,129.719513 71.442749,130.533920 70.852295,131.725433 
	C70.166565,132.349899 69.892929,132.597229 69.619293,132.844543 
	C67.003441,133.629089 64.387596,134.413620 61.088940,135.402954 
	C61.735310,133.911148 62.085297,133.103378 63.028374,132.313370 
	C66.347466,131.189133 69.073463,130.047119 71.799454,128.905121 
z"/>
<path fill="#E4E0DD" opacity="1.000000" stroke="none" 
	d="
M71.821838,128.574799 
	C69.073463,130.047119 66.347466,131.189133 63.298122,132.101547 
	C63.874676,130.075439 64.774574,128.278915 65.863663,126.188965 
	C67.732796,126.227325 69.412735,126.559105 71.466492,126.902222 
	C71.841606,127.357201 71.842911,127.800842 71.821838,128.574799 
z"/>
<path fill="#A76247" opacity="1.000000" stroke="none" 
	d="
M161.178391,158.382050 
	C162.032120,159.881348 163.379654,161.707687 163.651093,163.681976 
	C164.117432,167.073715 165.709930,168.537292 169.288528,168.249969 
	C168.390564,168.582642 167.123367,169.516571 166.085312,169.308289 
	C164.957962,169.082153 163.515076,167.981812 163.140808,166.931046 
	C162.208221,164.312897 161.804199,161.506470 161.178391,158.382050 
z"/>
<path fill="#13030F" opacity="1.000000" stroke="none" 
	d="
M101.216759,168.465668 
	C103.275734,167.863937 105.403679,167.703827 107.779144,167.239197 
	C113.392426,167.281815 118.758186,167.628967 124.588318,167.903473 
	C124.808472,168.292816 124.562592,169.159088 124.320290,169.158096 
	C116.641884,169.126328 108.963829,169.010422 101.216759,168.465668 
z"/>
<path fill="#4F6AE3" opacity="1.000000" stroke="none" 
	d="
M86.324333,96.992500 
	C81.675957,97.162239 77.299667,97.095161 72.462845,97.099548 
	C73.699875,96.775146 75.397430,96.379288 77.497650,95.951935 
	C78.389465,95.941978 78.878624,95.963516 79.733749,95.952782 
	C82.265297,96.198898 84.430855,96.477287 86.324333,96.992500 
z"/>
<path fill="#FF743A" opacity="1.000000" stroke="none" 
	d="
M111.105049,130.968140 
	C110.563057,132.180634 110.021072,133.393112 109.204742,134.817535 
	C108.666161,133.291000 108.401909,131.552536 108.186325,129.428223 
	C108.995621,129.360504 109.756248,129.678635 110.779099,130.253204 
	C111.041321,130.509628 111.105049,130.968140 111.105049,130.968140 
z"/>
<path fill="#9F5A46" opacity="1.000000" stroke="none" 
	d="
M190.328735,167.999664 
	C190.788376,168.176178 190.845688,168.353607 190.927750,168.809372 
	C189.364822,168.930740 187.777115,168.773758 186.025146,168.335724 
	C187.216049,168.036652 188.571213,168.018616 190.328735,167.999664 
z"/>
<path fill="#DC9A82" opacity="1.000000" stroke="none" 
	d="
M125.954254,41.793350 
	C125.541435,43.090721 125.112083,44.010246 124.344208,44.973026 
	C124.472725,43.487354 124.939774,41.958427 125.639435,40.172005 
	C125.893936,40.414841 125.915825,40.915173 125.954254,41.793350 
z"/>
<path fill="#FF743A" opacity="1.000000" stroke="none" 
	d="
M103.141449,144.209930 
	C103.566246,143.877258 103.921333,143.969849 104.543686,144.139465 
	C104.368858,145.352753 103.926758,146.489014 103.259483,147.836914 
	C103.046791,146.910751 103.059273,145.772964 103.141449,144.209930 
z"/>
<path fill="#FF743A" opacity="1.000000" stroke="none" 
	d="
M106.247177,131.728577 
	C106.223488,130.798660 106.379181,129.571609 106.807404,128.181183 
	C106.862144,129.155685 106.644348,130.293549 106.247177,131.728577 
z"/>
<path fill="#FF743A" opacity="1.000000" stroke="none" 
	d="
M98.307541,151.016785 
	C98.007187,150.857422 98.011200,150.690552 97.972382,150.277191 
	C99.013519,150.020264 100.097511,150.009872 101.586876,149.998260 
	C100.865471,150.334488 99.738693,150.671890 98.307541,151.016785 
z"/>
<path fill="#FBF7F0" opacity="1.000000" stroke="none" 
	d="
M71.341797,151.971405 
	C71.849464,152.309204 72.113754,152.644653 72.664307,153.128723 
	C72.398003,153.550766 71.845436,153.824203 70.961761,154.134430 
	C70.480553,153.626190 70.330452,153.081177 70.152824,152.246490 
	C70.449493,151.974350 70.773872,151.978424 71.341797,151.971405 
z"/>
<path fill="#FF743A" opacity="1.000000" stroke="none" 
	d="
M102.226624,149.808487 
	C102.176926,149.436539 102.357956,148.883102 102.793526,148.173767 
	C102.851166,148.554245 102.654266,149.090622 102.226624,149.808487 
z"/>
<path fill="#FBF7F0" opacity="1.000000" stroke="none" 
	d="
M69.945618,132.892761 
	C69.892929,132.597229 70.166565,132.349899 70.715157,132.016220 
	C71.301765,132.057098 71.538155,132.268448 71.643173,132.798645 
	C71.148697,133.002548 70.710320,132.971771 69.945618,132.892761 
z"/>
<path fill="#F4B62C" opacity="1.000000" stroke="none" 
	d="
M87.933899,98.817482 
	C88.087227,98.945633 87.662514,98.960854 87.662514,98.960854 
	C87.662514,98.960854 87.277672,98.780708 87.150040,98.612427 
	C87.284157,98.497948 87.536880,98.579674 87.933899,98.817482 
z"/>
<path fill="#4857DE" opacity="1.000000" stroke="none" 
	d="
M116.780426,67.124657 
	C116.903625,67.350136 116.719337,67.600586 116.246140,67.900391 
	C116.091125,67.665710 116.263023,67.398994 116.780426,67.124657 
z"/>
<path fill="#4857DE" opacity="1.000000" stroke="none" 
	d="
M117.788109,66.165649 
	C117.900902,66.397865 117.711212,66.631790 117.247681,66.909721 
	C117.090668,66.667572 117.261269,66.405441 117.788109,66.165649 
z"/>
<path fill="#4857DE" opacity="1.000000" stroke="none" 
	d="
M65.439102,140.219299 
	C65.291908,139.910248 65.432404,139.597626 65.831726,139.218933 
	C65.969292,139.507141 65.848038,139.861420 65.439102,140.219299 
z"/>
<path fill="#FF743A" opacity="1.000000" stroke="none" 
	d="
M105.953171,134.744324 
	C105.733849,134.815323 105.567337,134.656479 105.449295,134.467377 
	C105.422028,134.423691 105.560585,134.276489 105.779526,134.093063 
	C105.965363,134.173965 105.994499,134.338715 105.953171,134.744324 
z"/>
<path fill="#FF743A" opacity="1.000000" stroke="none" 
	d="
M109.015938,137.254211 
	C109.174942,137.271164 109.288956,137.534668 109.250999,137.891785 
	C109.056335,137.823837 109.013641,137.662292 109.015938,137.254211 
z"/>
<path fill="#E6A48C" opacity="1.000000" stroke="none" 
	d="
M109.285805,142.145050 
	C109.657448,142.129776 109.793350,142.413666 109.700302,142.997772 
	C109.330589,143.015717 109.190155,142.731125 109.285805,142.145050 
z"/>
<path fill="#FEF7F3" opacity="1.000000" stroke="none" 
	d="
M75.120499,124.779778 
	C75.165413,124.432419 75.210327,124.085068 75.202240,123.482605 
	C75.373329,116.577240 75.597412,109.926979 76.216431,102.830055 
	C76.611359,102.383385 77.086502,102.228294 77.086502,102.228294 
	C87.620552,102.352562 98.154610,102.476837 109.097694,102.788132 
	C108.338821,105.270790 107.170914,107.566406 106.538406,108.809654 
	C104.031548,109.408592 101.927834,109.911209 99.506714,110.287735 
	C98.102898,110.425865 97.016487,110.690071 95.930077,110.954269 
	C95.930077,110.954269 95.995888,110.990639 95.760521,111.060852 
	C95.231491,111.337135 95.099068,111.618950 95.127884,111.976509 
	C95.127884,111.976509 94.899681,112.221458 94.636841,112.556381 
	C94.235306,113.255730 94.096611,113.620148 93.957916,113.984566 
	C93.957916,113.984566 94.005875,113.989548 93.766632,114.168373 
	C93.355995,114.897156 93.184601,115.447105 93.013199,115.997063 
	C92.711739,116.478905 92.410271,116.960747 91.999710,117.968674 
	C91.884315,118.669235 91.878014,118.843704 91.871712,119.018181 
	C91.871712,119.018181 91.732117,119.202873 91.538635,119.492973 
	C91.256371,120.183784 91.167587,120.584503 91.078804,120.985214 
	C90.913345,121.276314 90.809219,121.587914 90.539352,122.394264 
	C90.504272,123.671143 90.696266,124.473778 90.888260,125.276405 
	C91.162811,126.027405 91.437370,126.778397 91.762627,127.668068 
	C90.894058,127.827660 90.105873,127.972481 88.812119,128.580338 
	C88.130318,130.006958 87.954094,130.970520 87.777870,131.934097 
	C87.777870,131.934097 87.881599,131.943008 87.603088,132.108551 
	C87.141518,133.158203 86.958450,134.042282 86.775375,134.926376 
	C86.775383,134.926376 86.869728,134.942230 86.581421,135.148895 
	C86.023819,136.571304 85.754517,137.787033 85.318100,139.281128 
	C84.752014,141.015564 84.353043,142.471634 83.954086,143.927689 
	C81.695244,146.876221 79.436394,149.824753 76.903748,152.424408 
	C76.132591,151.285110 75.635246,150.494690 75.137894,149.704254 
	C75.198433,143.444489 75.258972,137.184708 75.317131,130.212494 
	C75.274208,129.335251 75.233665,129.170456 75.193115,129.005646 
	C75.235313,128.243652 75.277504,127.481659 75.307625,126.041702 
	C75.237198,125.169090 75.178848,124.974434 75.120499,124.779778 
z"/>
<path fill="#FEB6D3" opacity="1.000000" stroke="none" 
	d="
M142.060226,129.038956 
	C140.749100,129.028244 139.437988,129.017548 137.312027,128.965118 
	C135.377670,128.964661 134.258133,129.005890 132.701553,129.022095 
	C130.237061,129.014465 128.209610,129.031876 126.182175,129.049286 
	C126.973709,128.068344 127.650887,126.394333 128.578995,126.241196 
	C131.003677,125.841141 133.538162,126.106422 136.677414,126.106422 
	C138.268799,115.164291 145.334213,110.362015 156.406555,110.004311 
	C157.042084,110.210899 157.150726,110.272461 157.259369,110.334030 
	C157.115112,110.129135 156.970840,109.924240 156.826569,109.719353 
	C156.837708,108.096901 156.848846,106.474442 157.341568,104.435089 
	C161.565735,104.016006 165.308319,104.013832 169.029846,104.406937 
	C166.930939,111.617378 164.853119,118.432541 162.566040,125.279999 
	C161.617905,126.160355 160.878998,127.008415 159.857697,127.922005 
	C159.383804,128.013626 159.192307,128.039719 158.654755,128.119202 
	C157.177567,128.461792 156.046417,128.751007 154.457794,129.031525 
	C150.020279,129.028198 146.040253,129.033569 142.060226,129.038956 
z"/>
<path fill="#FEF0F2" opacity="1.000000" stroke="none" 
	d="
M126.222168,129.401459 
	C128.209610,129.031876 130.237061,129.014465 132.715027,129.408478 
	C134.059341,133.180893 134.953110,136.541870 135.846878,139.902863 
	C135.116150,144.444138 134.385422,148.985413 133.406311,153.833435 
	C131.139236,153.722672 129.120544,153.305161 127.088272,152.490875 
	C128.045517,150.995789 129.966476,149.665771 129.768173,148.852539 
	C129.457932,147.580307 127.714027,146.657700 126.219452,145.249710 
	C126.279701,144.085876 126.392746,141.902252 126.522552,139.394760 
	C126.961845,139.451920 128.126633,139.603485 130.072235,139.856659 
	C128.659256,136.109924 127.460709,132.931778 126.222168,129.401459 
z"/>
<path fill="#FFB2CB" opacity="1.000000" stroke="none" 
	d="
M97.022141,124.114517 
	C97.223984,123.476357 97.425827,122.838196 98.082306,121.868263 
	C98.371826,120.670830 98.206711,119.805161 98.041595,118.939491 
	C98.041588,118.939491 98.003716,118.996506 97.995132,118.741852 
	C97.986549,118.487198 97.752357,118.055283 97.752357,118.055283 
	C97.773201,117.855301 97.794044,117.655319 98.142776,117.237915 
	C98.639137,117.034142 98.807610,117.047798 98.976074,117.061455 
	C98.976074,117.061455 98.997078,117.001534 99.191803,117.260880 
	C100.307259,117.366249 101.227982,117.212280 102.148705,117.058304 
	C102.617020,116.668747 103.085342,116.279190 103.887863,116.174332 
	C104.814690,117.644150 105.407318,118.829269 105.999939,120.014397 
	C105.798111,121.123177 105.596275,122.231964 104.920540,123.678482 
	C104.320457,124.339203 104.194290,124.662193 104.068123,124.985191 
	C103.658974,126.041992 103.249832,127.098801 102.616722,128.734070 
	C101.976944,127.390312 101.550728,126.495117 100.993553,125.029663 
	C100.573700,124.299492 100.284821,124.139587 99.995934,123.979683 
	C99.546631,123.976753 99.097328,123.973824 98.074799,124.003845 
	C97.501572,124.036789 97.022133,124.114517 97.022141,124.114517 
z"/>
<path fill="#FFB2CB" opacity="1.000000" stroke="none" 
	d="
M126.893661,119.428223 
	C125.940544,119.563843 125.313705,119.732880 125.011787,119.814301 
	C125.011787,117.362862 125.011787,114.922836 125.011787,112.811180 
	C126.631912,112.358086 128.608185,111.805389 130.511154,111.273186 
	C131.211075,113.053482 132.100357,115.315384 132.883652,117.307709 
	C131.807083,118.645805 130.526077,120.238022 129.169510,121.924156 
	C128.761032,121.408211 127.990494,120.434921 126.893661,119.428223 
z"/>
<path fill="#FFB2CB" opacity="1.000000" stroke="none" 
	d="
M111.409775,131.108582 
	C111.105049,130.968140 111.041321,130.509628 111.089897,130.283386 
	C112.837074,129.260666 114.535683,128.464188 116.195145,127.686043 
	C116.784431,128.357544 118.022148,129.767929 119.536942,131.494064 
	C119.357262,132.787704 119.046600,135.024338 118.759026,137.094772 
	C117.120834,136.810776 115.386719,136.510162 114.333778,136.327637 
	C113.394951,134.507324 112.554726,132.878174 111.409775,131.108582 
z"/>
<path fill="#FEB6D3" opacity="1.000000" stroke="none" 
	d="
M139.885559,103.317398 
	C141.759781,102.943161 143.538574,102.887962 145.762268,102.903755 
	C147.339035,103.870697 148.470886,104.766647 149.605652,105.668228 
	C147.441574,107.128784 145.274551,108.583710 143.258606,109.937210 
	C141.504242,108.819061 139.335266,107.436661 137.060822,105.987038 
	C137.666046,105.465782 138.728088,104.551109 139.885559,103.317398 
z"/>
<path fill="#FFB2CB" opacity="1.000000" stroke="none" 
	d="
M108.070892,116.814590 
	C108.176506,112.661606 110.027321,110.478401 114.361740,111.089233 
	C115.036850,112.597839 115.668541,114.009407 116.069420,114.905205 
	C114.276634,116.695190 112.545235,118.423897 110.497169,119.677559 
	C109.477295,118.406540 108.774094,117.610565 108.070892,116.814590 
z"/>
<path fill="#FFB2CB" opacity="1.000000" stroke="none" 
	d="
M84.265045,144.066742 
	C84.353043,142.471634 84.752014,141.015564 85.699753,139.282272 
	C87.073685,138.820740 87.898842,138.636429 88.450325,138.513245 
	C89.067177,139.879791 89.538841,140.924683 90.010513,141.969589 
	C90.184784,142.692627 90.359062,143.415649 89.961700,144.172516 
	C88.629593,144.501678 87.869141,144.797028 87.108688,145.092377 
	C86.264458,144.796829 85.420242,144.501312 84.265045,144.066742 
z"/>
<path fill="#FF743A" opacity="1.000000" stroke="none" 
	d="
M90.009422,141.633972 
	C89.538841,140.924683 89.067177,139.879791 88.450325,138.513245 
	C87.898842,138.636429 87.073685,138.820740 85.866867,139.003906 
	C85.754517,137.787033 86.023819,136.571304 86.566284,135.103531 
	C87.885826,137.005310 92.132278,137.586182 90.009422,141.633972 
z"/>
<path fill="#FAB2CE" opacity="1.000000" stroke="none" 
	d="
M169.050919,104.011650 
	C165.308319,104.013832 161.565735,104.016006 157.350220,104.027527 
	C156.585876,103.972206 156.390259,103.799225 156.241577,103.320816 
	C156.192703,103.123711 156.153305,103.118248 156.610962,103.131119 
	C161.111359,103.186432 165.154099,103.228882 169.170227,103.458359 
	C169.143616,103.645386 169.050919,104.011650 169.050919,104.011650 
z"/>
<path fill="#FF743A" opacity="1.000000" stroke="none" 
	d="
M123.810562,105.143112 
	C124.824982,104.619034 125.582314,104.306526 126.646736,103.949814 
	C126.448006,105.214684 125.942192,106.523766 125.436371,107.832840 
	C124.808739,107.006790 124.181099,106.180733 123.810562,105.143112 
z"/>
<path fill="#FF743A" opacity="1.000000" stroke="none" 
	d="
M105.999451,119.641846 
	C105.407318,118.829269 104.814690,117.644150 104.182587,116.087791 
	C104.761726,116.900803 105.380348,118.085045 105.999451,119.641846 
z"/>
<path fill="#FF743A" opacity="1.000000" stroke="none" 
	d="
M87.266724,145.327866 
	C87.869141,144.797028 88.629593,144.501678 89.698807,144.265472 
	C90.005692,144.935837 90.003822,145.547028 90.003685,146.460205 
	C89.145195,146.362579 88.284973,145.962967 87.266724,145.327866 
z"/>
<path fill="#FF743A" opacity="1.000000" stroke="none" 
	d="
M108.054939,117.202759 
	C108.774094,117.610565 109.477295,118.406540 110.244049,119.546272 
	C109.551392,119.123665 108.795189,118.357300 108.054939,117.202759 
z"/>
<path fill="#FF743A" opacity="1.000000" stroke="none" 
	d="
M116.980301,103.281174 
	C117.001862,103.009979 117.499908,102.989304 117.748886,103.000137 
	C117.469994,104.023651 116.942131,105.036324 116.414261,106.048996 
	C116.060501,105.799721 115.706734,105.550453 115.352966,105.301186 
	C115.888222,104.718246 116.423485,104.135307 116.980301,103.281174 
z"/>
<path fill="#FF743A" opacity="1.000000" stroke="none" 
	d="
M97.002815,139.430786 
	C97.489899,139.937027 97.979942,140.778915 98.275879,141.827972 
	C97.723106,141.278915 97.364441,140.522675 97.002815,139.430786 
z"/>
<path fill="#FF743A" opacity="1.000000" stroke="none" 
	d="
M96.352325,110.967270 
	C97.016487,110.690071 98.102898,110.425865 99.249229,110.520966 
	C98.464294,110.913605 97.619438,110.946938 96.352325,110.967270 
z"/>
<path fill="#FF743A" opacity="1.000000" stroke="none" 
	d="
M87.092361,134.758774 
	C86.958450,134.042282 87.141518,133.158203 87.587723,132.058823 
	C87.703697,132.759415 87.556526,133.675293 87.092361,134.758774 
z"/>
<path fill="#FF743A" opacity="1.000000" stroke="none" 
	d="
M101.748306,117.040787 
	C101.227982,117.212280 100.307259,117.366249 99.165680,117.278915 
	C99.745850,117.032822 100.546883,117.028038 101.748306,117.040787 
z"/>
<path fill="#FF743A" opacity="1.000000" stroke="none" 
	d="
M88.108810,131.736603 
	C87.954094,130.970520 88.130318,130.006958 88.582130,128.791840 
	C88.718391,129.539902 88.579071,130.539520 88.108810,131.736603 
z"/>
<path fill="#FF743A" opacity="1.000000" stroke="none" 
	d="
M99.006134,136.102295 
	C98.507942,136.466095 97.629875,136.791794 96.381088,137.084229 
	C96.882324,136.722046 97.754295,136.393127 99.006134,136.102295 
z"/>
<path fill="#FF743A" opacity="1.000000" stroke="none" 
	d="
M98.027954,119.302368 
	C98.206711,119.805161 98.371826,120.670830 98.268906,121.685806 
	C98.005348,121.111824 98.009834,120.388535 98.027954,119.302368 
z"/>
<path fill="#FF743A" opacity="1.000000" stroke="none" 
	d="
M93.258011,115.823700 
	C93.184601,115.447105 93.355995,114.897156 93.749542,114.151299 
	C93.815399,114.520378 93.659103,115.085365 93.258011,115.823700 
z"/>
<path fill="#FF743A" opacity="1.000000" stroke="none" 
	d="
M90.912186,124.799347 
	C90.696266,124.473778 90.504272,123.671143 90.575356,122.639313 
	C90.870987,123.047501 90.903549,123.684891 90.912186,124.799347 
z"/>
<path fill="#FF743A" opacity="1.000000" stroke="none" 
	d="
M101.973244,135.710724 
	C101.666130,135.540298 101.340004,135.067093 100.983009,134.301636 
	C101.286171,134.475555 101.620201,134.941757 101.973244,135.710724 
z"/>
<path fill="#FF743A" opacity="1.000000" stroke="none" 
	d="
M95.326736,111.854218 
	C95.099068,111.618950 95.231491,111.337135 95.744858,111.026680 
	C95.911591,111.242798 95.765274,111.512680 95.326736,111.854218 
z"/>
<path fill="#FF743A" opacity="1.000000" stroke="none" 
	d="
M102.856903,136.658249 
	C102.685020,136.729752 102.397659,136.609848 102.048935,136.247299 
	C102.286674,136.080750 102.537956,136.234818 102.856903,136.658249 
z"/>
<path fill="#FF743A" opacity="1.000000" stroke="none" 
	d="
M95.887077,137.085815 
	C96.060074,137.023163 95.912506,137.484406 95.894547,137.725403 
	C95.742409,137.783142 95.592178,137.608261 95.488281,137.409195 
	C95.468742,137.371765 95.634064,137.237854 95.887077,137.085815 
z"/>
<path fill="#FF743A" opacity="1.000000" stroke="none" 
	d="
M104.285812,124.848267 
	C104.194290,124.662193 104.320457,124.339203 104.692505,123.906403 
	C104.793427,124.101501 104.648468,124.406418 104.285812,124.848267 
z"/>
<path fill="#FF743A" opacity="1.000000" stroke="none" 
	d="
M100.094940,124.195450 
	C100.284821,124.139587 100.573700,124.299492 100.897217,124.722931 
	C100.622711,124.875748 100.376740,124.683998 100.094940,124.195450 
z"/>
<path fill="#FF743A" opacity="1.000000" stroke="none" 
	d="
M94.208717,113.821075 
	C94.096611,113.620148 94.235306,113.255730 94.622208,112.723129 
	C94.733452,112.922501 94.596489,113.290047 94.208717,113.821075 
z"/>
<path fill="#FF743A" opacity="1.000000" stroke="none" 
	d="
M97.113060,124.261955 
	C97.022133,124.114517 97.501572,124.036789 97.742706,124.065186 
	C97.723892,124.198860 97.463936,124.304123 97.113060,124.261955 
z"/>
<path fill="#FF743A" opacity="1.000000" stroke="none" 
	d="
M91.311325,120.783478 
	C91.167587,120.584503 91.256371,120.183784 91.598114,119.592278 
	C91.748665,119.794899 91.646248,120.188316 91.311325,120.783478 
z"/>
<path fill="#FF743A" opacity="1.000000" stroke="none" 
	d="
M102.074493,143.091125 
	C102.288910,143.009308 102.626488,143.177704 103.048126,143.620789 
	C102.820671,143.710754 102.509171,143.526047 102.074493,143.091125 
z"/>
<path fill="#FF743A" opacity="1.000000" stroke="none" 
	d="
M97.629684,118.177040 
	C97.752357,118.055283 97.986549,118.487198 98.027039,118.729492 
	C97.880692,118.747459 97.693855,118.523132 97.629684,118.177040 
z"/>
<path fill="#FF743A" opacity="1.000000" stroke="none" 
	d="
M92.053879,118.951088 
	C91.878014,118.843704 91.884315,118.669235 91.994141,118.254211 
	C92.232758,118.212730 92.384827,118.403664 92.487556,118.618217 
	C92.506424,118.657623 92.325005,118.792946 92.053879,118.951088 
z"/>
<path fill="#FF743A" opacity="1.000000" stroke="none" 
	d="
M98.910217,116.886780 
	C98.807610,117.047798 98.639137,117.034142 98.227509,116.948471 
	C98.271019,116.821671 98.557693,116.766891 98.910217,116.886780 
z"/>
<path fill="#E7A38B" opacity="1.000000" stroke="none" 
	d="
M136.750443,96.917267 
	C135.519989,97.016579 134.289520,97.115898 132.365555,97.070755 
	C130.820801,96.822601 129.969559,96.718910 129.118317,96.615227 
	C129.118317,96.615227 129.115952,96.262650 128.901794,95.790726 
	C129.098251,93.201805 129.508850,91.084824 129.919449,88.967834 
	C133.946274,84.697701 139.099289,83.773872 144.640564,84.037781 
	C145.294815,84.068932 145.942001,84.248566 146.794769,85.135338 
	C146.987991,87.654243 147.209320,89.441696 146.884247,91.123550 
	C146.686188,92.148315 145.646271,93.010361 144.984497,93.945496 
	C144.984497,93.945496 144.541168,93.723160 143.886505,93.740112 
	C141.071381,94.810455 138.910904,95.863861 136.750443,96.917267 
z"/>
<path fill="#F2F2F7" opacity="1.000000" stroke="none" 
	d="
M122.520920,95.894897 
	C121.394203,92.885017 120.267494,89.875130 119.140266,86.506363 
	C120.198837,85.160233 121.257935,84.172989 122.631477,82.892632 
	C123.329224,84.568085 123.927994,86.005890 124.692345,88.089584 
	C124.078918,91.121948 123.299911,93.508423 122.520920,95.894897 
z"/>
<path fill="#575DD8" opacity="1.000000" stroke="none" 
	d="
M122.983170,95.979324 
	C123.299911,93.508423 124.078918,91.121948 124.894333,88.364799 
	C126.347542,88.316849 127.764320,88.639580 129.550278,88.965073 
	C129.508850,91.084824 129.098251,93.201805 128.821014,95.634026 
	C127.118073,95.987427 125.281746,96.025589 122.983170,95.979324 
z"/>
<path fill="#4956DB" opacity="1.000000" stroke="none" 
	d="
M137.090851,97.035248 
	C138.910904,95.863861 141.071381,94.810455 143.645050,93.796547 
	C142.875107,94.522331 141.691986,95.208626 139.447922,96.510338 
	C143.824478,96.874672 147.130508,97.149887 150.722076,97.719437 
	C147.298462,98.096649 143.589325,98.179527 139.438461,98.391212 
	C138.474915,98.064423 137.953079,97.608826 137.090851,97.035248 
z"/>
<path fill="#4956DB" opacity="1.000000" stroke="none" 
	d="
M145.173279,94.222862 
	C145.646271,93.010361 146.686188,92.148315 146.884247,91.123550 
	C147.209320,89.441696 146.987991,87.654243 147.048584,85.469803 
	C147.393539,88.097046 147.696686,91.165260 147.871399,94.240761 
	C147.873611,94.279610 146.234879,94.411674 145.173279,94.222862 
z"/>
<path fill="#4956DB" opacity="1.000000" stroke="none" 
	d="
M142.312775,61.416679 
	C143.519012,61.261826 144.985779,61.347668 146.652939,61.734299 
	C145.426666,61.909184 143.999985,61.783283 142.312775,61.416679 
z"/>
<path fill="#4857DE" opacity="1.000000" stroke="none" 
	d="
M124.008736,67.996391 
	C124.109131,67.264282 124.209518,66.532173 124.309906,65.800064 
	C124.789345,66.024483 125.268776,66.248909 125.614052,66.843155 
	C124.989510,67.474129 124.499123,67.735260 124.008736,67.996391 
z"/>
<path fill="#4956DB" opacity="1.000000" stroke="none" 
	d="
M124.168686,68.234329 
	C124.499123,67.735260 124.989510,67.474129 125.737289,67.106720 
	C125.439346,67.491058 124.883995,67.981659 124.168686,68.234329 
z"/>
<path fill="#4956DB" opacity="1.000000" stroke="none" 
	d="
M126.691284,71.918991 
	C126.723259,72.469688 126.595474,72.860283 126.467697,73.250885 
	C126.361015,73.144173 126.147957,73.013748 126.165565,72.934738 
	C126.254562,72.535431 126.403572,72.149506 126.691284,71.918991 
z"/>
<path fill="#4956DB" opacity="1.000000" stroke="none" 
	d="
M128.308685,76.080383 
	C128.276733,75.529701 128.404510,75.139099 128.532288,74.748505 
	C128.638962,74.855225 128.852020,74.985649 128.834412,75.064651 
	C128.745407,75.463951 128.596405,75.849861 128.308685,76.080383 
z"/>
<path fill="#4956DB" opacity="1.000000" stroke="none" 
	d="
M138.864288,74.299431 
	C139.054550,74.607689 139.028671,74.947952 139.002808,75.288223 
	C138.765778,75.216454 138.528748,75.144691 138.291718,75.072929 
	C138.410522,74.825768 138.529327,74.578606 138.864288,74.299431 
z"/>
<path fill="#4956DB" opacity="1.000000" stroke="none" 
	d="
M153.901886,97.080872 
	C153.699997,97.420677 153.177673,97.746002 152.333221,98.019379 
	C152.534561,97.667084 153.057999,97.366737 153.901886,97.080872 
z"/>
<path fill="#4956DB" opacity="1.000000" stroke="none" 
	d="
M147.115143,62.326729 
	C147.044586,62.199211 147.477158,62.197948 147.683533,62.258621 
	C147.889923,62.319294 147.565567,62.579018 147.565567,62.579018 
	C147.565567,62.579018 147.185684,62.454247 147.115143,62.326729 
z"/>
<path fill="#4956DB" opacity="1.000000" stroke="none" 
	d="
M146.449783,64.532227 
	C146.416702,64.476730 146.482864,64.587715 146.449783,64.532227 
z"/>
<path fill="#FFFEFC" opacity="1.000000" stroke="none" 
	d="
M142.056503,129.444717 
	C146.040253,129.033569 150.020279,129.028198 154.472351,129.432434 
	C156.276749,135.300949 157.609116,140.759842 158.933136,146.588593 
	C159.290970,148.635925 159.657135,150.313385 160.023315,151.990860 
	C160.010193,152.439713 159.997086,152.888565 159.818176,153.735321 
	C159.370728,154.260437 159.204102,154.476318 159.152466,154.780884 
	C153.538040,154.751312 147.923599,154.721725 142.066437,153.942047 
	C141.150452,149.504868 140.477203,145.817795 139.803955,142.130722 
	C140.553574,138.037308 141.303177,133.943893 142.056503,129.444717 
z"/>
<path fill="#FEFDFD" opacity="1.000000" stroke="none" 
	d="
M169.029846,104.406937 
	C169.050919,104.011650 169.143616,103.645386 169.378937,103.334511 
	C169.614273,103.023636 169.974411,102.695732 169.974411,102.695732 
	C172.688385,102.721077 175.402359,102.746422 178.557938,102.886101 
	C178.999542,103.000435 179.003815,103.007133 179.003815,103.007133 
	C179.095795,113.329979 179.187759,123.652817 179.167206,134.494385 
	C179.054657,135.013107 179.003967,135.343964 179.003967,135.343964 
	C175.646790,135.157883 172.289612,134.971817 168.495163,134.487183 
	C166.297028,131.208328 164.536163,128.228012 162.775299,125.247704 
	C164.853119,118.432541 166.930939,111.617378 169.029846,104.406937 
z"/>
<path fill="#FDBC1C" opacity="1.000000" stroke="none" 
	d="
M158.941483,146.218735 
	C157.609116,140.759842 156.276749,135.300949 154.929840,129.441132 
	C156.046417,128.751007 157.177567,128.461792 158.749695,128.505005 
	C159.879379,132.563034 160.568069,136.288651 161.256775,140.014267 
	C160.799667,141.693985 160.342560,143.373718 159.654022,145.531097 
	C159.262207,146.078766 159.101837,146.148743 158.941483,146.218735 
z"/>
<path fill="#3D3136" opacity="1.000000" stroke="none" 
	d="
M162.566055,125.279999 
	C164.536163,128.228012 166.297028,131.208328 168.121399,134.546753 
	C166.743546,135.600174 165.302200,136.295471 163.446991,136.643738 
	C162.068802,133.483292 161.104446,130.669876 160.140091,127.856476 
	C160.878998,127.008415 161.617905,126.160355 162.566055,125.279999 
z"/>
<path fill="#FBF7F0" opacity="1.000000" stroke="none" 
	d="
M159.857697,127.922005 
	C161.104446,130.669876 162.068802,133.483292 163.108215,136.698425 
	C162.712219,137.966873 162.241165,138.833557 161.513443,139.857269 
	C160.568069,136.288651 159.879379,132.563034 159.095749,128.451630 
	C159.192307,128.039719 159.383804,128.013626 159.857697,127.922005 
z"/>
<path fill="#DC9A82" opacity="1.000000" stroke="none" 
	d="
M167.606567,143.484711 
	C167.794586,145.299820 167.648254,146.931046 167.501923,148.562256 
	C166.405045,148.032822 165.308151,147.503387 164.211273,146.973953 
	C165.231583,145.749573 166.251907,144.525192 167.606567,143.484711 
z"/>
<path fill="#A76247" opacity="1.000000" stroke="none" 
	d="
M158.933136,146.588593 
	C159.101837,146.148743 159.262207,146.078766 159.665039,145.908600 
	C160.121689,147.714279 160.335892,149.620102 160.286713,151.758392 
	C159.657135,150.313385 159.290970,148.635925 158.933136,146.588593 
z"/>
<path fill="#FFC231" opacity="1.000000" stroke="none" 
	d="
M179.226852,135.547394 
	C179.003967,135.343964 179.054657,135.013107 179.180801,134.905273 
	C179.967453,134.631470 180.627960,134.465485 181.602249,134.164368 
	C181.925461,134.775681 181.934891,135.522156 181.901489,136.640625 
	C181.858688,137.012650 181.681046,137.072266 181.595093,137.096497 
	C180.822678,136.664093 180.136215,136.207458 179.226852,135.547394 
z"/>
<path fill="#A76247" opacity="1.000000" stroke="none" 
	d="
M159.452881,154.836700 
	C159.204102,154.476318 159.370728,154.260437 159.856293,154.071121 
	C160.314087,154.232376 160.567963,154.455750 160.881134,154.933502 
	C160.544739,155.089417 160.149017,154.990967 159.452881,154.836700 
z"/>
<path fill="#A05943" opacity="1.000000" stroke="none" 
	d="
M99.492325,86.658188 
	C101.662910,86.043594 103.982849,85.726425 107.296143,85.273453 
	C106.331230,87.531830 105.631393,89.169807 104.587212,91.613754 
	C102.604698,89.746445 101.123184,88.351028 99.492325,86.658188 
z"/>
<path fill="#251B2A" opacity="1.000000" stroke="none" 
	d="
M129.075562,96.999077 
	C129.969559,96.718910 130.820801,96.822601 132.099960,96.990738 
	C131.613159,97.476845 130.698456,97.898499 129.378387,98.236603 
	C128.992950,97.896355 129.012878,97.639641 129.075562,96.999077 
z"/>
<path fill="#251B2A" opacity="1.000000" stroke="none" 
	d="
M122.913681,97.893341 
	C122.589645,98.194908 122.115715,98.242851 121.290306,98.216476 
	C121.547150,97.974678 122.155472,97.807198 122.913681,97.893341 
z"/>
<path fill="#F1B959" opacity="1.000000" stroke="none" 
	d="
M169.632782,102.483170 
	C169.974411,102.695732 169.614273,103.023636 169.405548,103.147491 
	C165.154099,103.228882 161.111359,103.186432 156.620605,103.124802 
	C160.545425,102.827278 164.918304,102.548943 169.632782,102.483170 
z"/>
<path fill="#F1B959" opacity="1.000000" stroke="none" 
	d="
M178.997894,102.997467 
	C179.615234,102.674149 180.234222,102.353813 180.853195,102.033470 
	C180.926254,102.260574 180.999313,102.487679 181.072372,102.714783 
	C180.576813,102.807373 180.081268,102.899956 179.294769,102.999840 
	C179.003815,103.007133 178.999542,103.000435 178.997894,102.997467 
z"/>
<path fill="#FDBC1C" opacity="1.000000" stroke="none" 
	d="
M76.976097,102.024666 
	C77.086502,102.228294 76.611359,102.383385 76.362671,102.408165 
	C76.364555,102.228973 76.615120,102.025002 76.976097,102.024666 
z"/>
<path fill="#DC9A82" opacity="1.000000" stroke="none" 
	d="
M130.945526,46.773926 
	C130.970932,47.302551 130.964294,47.469368 130.733994,47.729630 
	C130.253708,47.595222 130.082336,47.315193 129.996201,46.982998 
	C130.094955,46.331196 130.193710,45.679394 130.536438,44.997688 
	C130.824768,45.449230 130.869110,45.930672 130.945526,46.773926 
z"/>
<path fill="#F4B62C" opacity="1.000000" stroke="none" 
	d="
M75.079620,150.063293 
	C75.635246,150.494690 76.132591,151.285110 76.545837,152.289154 
	C76.461739,152.502762 76.250259,152.555466 76.144882,152.530334 
	C75.776688,152.383606 75.519516,152.251022 75.084518,151.988403 
	C74.941154,151.386963 74.981255,150.904648 75.079620,150.063293 
z"/>
<path fill="#DC9A82" opacity="1.000000" stroke="none" 
	d="
M123.987366,48.983147 
	C124.741104,49.022541 125.506561,49.077965 126.272011,49.133385 
	C126.174980,49.467373 126.077957,49.801357 125.980927,50.135345 
	C125.393234,49.923660 124.805550,49.711979 124.091454,49.240807 
	C123.965050,48.981319 123.999077,48.999176 123.987366,48.983147 
z"/>
<path fill="#9F5A46" opacity="1.000000" stroke="none" 
	d="
M129.750671,47.184196 
	C130.082336,47.315193 130.253708,47.595222 130.704956,47.978363 
	C130.671219,48.559757 130.442841,48.985870 130.065369,49.751450 
	C129.916275,50.090908 129.712845,50.294765 129.712860,50.294765 
	C129.643616,49.324974 129.574387,48.355183 129.750671,47.184196 
z"/>
<path fill="#9F5A46" opacity="1.000000" stroke="none" 
	d="
M130.020187,49.991226 
	C130.312347,50.086353 130.500580,50.281162 130.688828,50.475971 
	C130.454636,50.524414 130.220459,50.572857 129.849548,50.458031 
	C129.712845,50.294765 129.916275,50.090908 130.020187,49.991226 
z"/>
<path fill="#A76247" opacity="1.000000" stroke="none" 
	d="
M139.562805,142.405853 
	C140.477203,145.817795 141.150452,149.504868 141.796036,153.590714 
	C139.321274,155.211761 137.875900,154.397659 138.050262,151.724854 
	C138.247894,148.695465 138.879013,145.694382 139.562805,142.405853 
z"/>
<path fill="#A76247" opacity="1.000000" stroke="none" 
	d="
M135.904877,139.498077 
	C134.953110,136.541870 134.059341,133.180893 133.152100,129.433517 
	C134.258133,129.005890 135.377670,128.964661 136.922119,129.017029 
	C136.885666,132.438202 136.424255,135.765747 135.904877,139.498077 
z"/>
<path fill="#13030F" opacity="1.000000" stroke="none" 
	d="
M168.707367,87.235794 
	C170.115341,87.016663 171.218918,87.016663 172.322495,87.016663 
	C172.322144,87.305412 172.321777,87.594162 172.321426,87.882912 
	C171.015274,87.740250 169.709122,87.597580 168.707367,87.235794 
z"/>
<path fill="#F4B62C" opacity="1.000000" stroke="none" 
	d="
M74.999405,129.082550 
	C75.233665,129.170456 75.274208,129.335251 75.254105,129.747147 
	C75.064201,129.715973 74.934944,129.437698 74.999405,129.082550 
z"/>
<path fill="#F4B62C" opacity="1.000000" stroke="none" 
	d="
M74.870865,124.911888 
	C75.178848,124.974434 75.237198,125.169090 75.244987,125.664078 
	C74.973572,125.956398 74.752716,125.948387 74.201172,125.904556 
	C74.120728,125.593819 74.370979,125.318909 74.870865,124.911888 
z"/>
<path fill="#FAB2CE" opacity="1.000000" stroke="none" 
	d="
M156.829971,109.791931 
	C156.970840,109.924240 157.115112,110.129135 157.259369,110.334030 
	C157.150726,110.272461 157.042084,110.210899 156.810974,110.001175 
	C156.688507,109.853004 156.833374,109.864517 156.829971,109.791931 
z"/>
</svg>